HIERARCHY
ROOT Pelvis
{
	OFFSET 0.000000 0.000000 0.000000
	CHANNELS 6 Xposition Yposition Zposition Xrotation Yrotation Zrotation
	JOINT LeftUpLeg_virtual
	{
		OFFSET 0.000000 0.000000 0.000000
		CHANNELS 3 Xrotation Yrotation Zrotation
		JOINT LeftUpLeg
		{
			OFFSET 18.735201 -5.666702 -4.541200
			CHANNELS 3 Xrotation Yrotation Zrotation
			JOINT LeftLeg
			{
				OFFSET -0.021200 -31.938179 0.493100
				CHANNELS 3 Xrotation Yrotation Zrotation
				JOINT LeftFoot
				{
					OFFSET 0.021200 -31.938179 -4.336299
					CHANNELS 3 Xrotation Yrotation Zrotation
					JOINT LeftToeBase
					{
						OFFSET 0.943001 -26.722000 15.023500
						CHANNELS 3 Xrotation Yrotation Zrotation
						End Site
						{
							OFFSET 0 0 0
						}
					}
				}
			}
		}
	}
	JOINT RightUpLeg_virtual
	{
		OFFSET 0.000000 0.000000 0.000000
		CHANNELS 3 Xrotation Yrotation Zrotation
		JOINT RightUpLeg
		{
			OFFSET -18.735201 -5.666702 -4.541200
			CHANNELS 3 Xrotation Yrotation Zrotation
			JOINT RightLeg
			{
				OFFSET 0.018946 -31.938133 0.493100
				CHANNELS 3 Xrotation Yrotation Zrotation
				JOINT RightFoot
				{
					OFFSET -0.018946 -31.938126 -4.336299
					CHANNELS 3 Xrotation Yrotation Zrotation
					JOINT RightToeBase
					{
						OFFSET -0.943001 -26.722004 15.023500
						CHANNELS 3 Xrotation Yrotation Zrotation
						End Site
						{
							OFFSET 0 0 0
						}
					}
				}
			}
		}
	}
	JOINT Hips_virtual
	{
		OFFSET 0.000000 0.000000 0.000000
		CHANNELS 3 Xrotation Yrotation Zrotation
		JOINT Hips
		{
			OFFSET -0.000000 -0.000000 -0.000000
			CHANNELS 3 Xrotation Yrotation Zrotation
			JOINT Spine
			{
				OFFSET 0.000000 10.199997 -0.299500
				CHANNELS 3 Xrotation Yrotation Zrotation
				JOINT Spine1
				{
					OFFSET 0.000000 11.900002 -1.516600
					CHANNELS 3 Xrotation Yrotation Zrotation
					JOINT Spine2
					{
						OFFSET 0.000000 13.600006 -2.842500
						CHANNELS 3 Xrotation Yrotation Zrotation
						JOINT Neck_virtual
						{
							OFFSET 0.000000 0.000000 0.000000
							CHANNELS 3 Xrotation Yrotation Zrotation
							JOINT Neck
							{
								OFFSET 0.000000 9.624100 -2.890100
								CHANNELS 3 Xrotation Yrotation Zrotation
								JOINT Head
								{
									OFFSET 0.000000 14.068802 -1.351900
									CHANNELS 3 Xrotation Yrotation Zrotation
									End Site
									{
										OFFSET 0 0 0
									}
								}
							}
						}
						JOINT LeftShoulder_virtual
						{
							OFFSET 0.000000 0.000000 0.000000
							CHANNELS 3 Xrotation Yrotation Zrotation
							JOINT LeftShoulder
							{
								OFFSET 15.263000 10.923401 -0.547700
								CHANNELS 3 Xrotation Yrotation Zrotation
								JOINT LeftArm
								{
									OFFSET 25.438599 -2.830597 -13.032500
									CHANNELS 3 Xrotation Yrotation Zrotation
									JOINT LeftForeArm
									{
										OFFSET 29.960503 0.000000 0.000000
										CHANNELS 3 Xrotation Yrotation Zrotation
										JOINT LeftHand
										{
											OFFSET 27.849251 0.000000 0.000000
											CHANNELS 3 Xrotation Yrotation Zrotation
											End Site
											{
												OFFSET 0 0 0
											}
										}
									}
								}
							}
						}
						JOINT RightShoulder_virtual
						{
							OFFSET 0.000000 0.000000 0.000000
							CHANNELS 3 Xrotation Yrotation Zrotation
							JOINT RightShoulder
							{
								OFFSET -15.263000 10.923401 -0.547700
								CHANNELS 3 Xrotation Yrotation Zrotation
								JOINT RightArm
								{
									OFFSET -25.438599 -2.830597 -13.032500
									CHANNELS 3 Xrotation Yrotation Zrotation
									JOINT RightForeArm
									{
										OFFSET -29.960503 0.000000 0.000000
										CHANNELS 3 Xrotation Yrotation Zrotation
										JOINT RightHand
										{
											OFFSET -27.849251 0.000000 0.000000
											CHANNELS 3 Xrotation Yrotation Zrotation
											End Site
											{
												OFFSET 0 0 0
											}
										}
									}
								}
							}
						}
					}
				}
			}
		}
	}
}
MOTION
Frames: 12
Frame Time: 0.03333333
-9.771166 78.415726 12.664767 0.000000 0.000000 0.000000 -7.473717 -4.418207 4.112369 -54.064233 4.535543 23.077742 41.824366 -14.481485 -3.844354 -11.197647 -11.600345 -21.107194 0.000000 0.000000 0.000000 15.517198 -27.264402 0.010208 -11.015531 -14.193889 -19.570439 42.119277 8.416886 2.349270 -20.137240 0.173504 19.214524 0.000000 0.000000 0.000000 1.360042 -14.997400 3.211765 -10.661280 -28.472006 7.837319 33.954185 -5.399560 2.464730 23.181339 -3.617091 -1.482112 0.000000 0.000000 0.000000 12.485378 -1.113114 -1.000139 2.870004 -0.424426 1.773619 0.000000 0.000000 0.000000 17.187570 -2.826240 -0.355314 2.100982 -19.913977 1.014101 -32.775025 -9.460881 -33.283607 -7.579442 -57.866251 1.337359 0.000000 0.000000 0.000000 17.637917 1.480964 0.755414 3.372001 0.237697 6.010674 -27.311956 2.557706 20.212442 -21.604385 67.279009 18.558589 0.000000 0.000000 0.000000 
-9.546340 78.581604 12.313518 0.000000 0.000000 0.000000 -7.858302 -3.896939 3.738107 -54.471209 4.737424 22.747103 42.163939 -14.551228 -3.554199 -10.913122 -11.866683 -20.790541 0.000000 0.000000 0.000000 15.413121 -27.051012 -0.175724 -11.030350 -14.096342 -19.679307 41.179897 8.141561 2.463991 -20.414402 -0.046087 19.132666 0.000000 0.000000 0.000000 1.439939 -14.669102 3.109962 -11.509118 -27.878964 6.652174 33.376027 -5.236303 2.456967 22.678122 -3.492697 -1.383226 0.000000 0.000000 0.000000 12.409073 -1.090841 -0.804315 2.822924 -0.440836 1.821837 0.000000 0.000000 0.000000 16.774784 -2.778544 -0.334188 1.992196 -19.624108 0.960123 -31.829125 -8.142874 -33.014891 -7.309484 -56.167200 1.460645 0.000000 0.000000 0.000000 17.217271 1.490528 0.762707 3.231352 0.421510 6.248617 -25.495945 2.559728 19.638457 -19.234511 66.839903 16.254433 0.000000 0.000000 0.000000 
-9.333041 78.746452 11.943990 0.000000 0.000000 0.000000 -8.221600 -3.433074 3.380180 -54.873883 4.925588 22.435879 42.559093 -14.608398 -3.272335 -10.576809 -12.123296 -20.487753 0.000000 0.000000 0.000000 15.301598 -26.881635 -0.355680 -11.070243 -14.007813 -19.795980 40.273087 7.840774 2.567467 -20.675580 -0.278870 19.027958 0.000000 0.000000 0.000000 1.500302 -14.414798 3.003045 -12.171270 -27.205282 5.544649 32.718689 -5.086969 2.419283 22.124043 -3.371962 -1.299042 0.000000 0.000000 0.000000 12.249686 -1.043854 -0.648372 2.746101 -0.427043 1.844997 0.000000 0.000000 0.000000 16.304939 -2.749752 -0.330320 1.892952 -19.360636 0.884262 -30.888725 -6.921062 -32.888355 -7.048652 -54.460110 1.490714 0.000000 0.000000 0.000000 16.722079 1.478118 0.759229 3.099719 0.595126 6.381941 -23.766094 2.364597 19.169409 -17.086857 66.260102 14.190816 0.000000 0.000000 0.000000 
-9.125888 78.907722 11.567683 0.000000 0.000000 0.000000 -8.555576 -3.046565 3.045071 -55.263617 5.093700 22.150689 43.009049 -14.654837 -3.001633 -10.189637 -12.370225 -20.203262 0.000000 0.000000 0.000000 15.182723 -26.773665 -0.524142 -11.137517 -13.934079 -19.918283 39.422459 7.523461 2.658106 -20.908430 -0.517485 18.906262 0.000000 0.000000 0.000000 1.543338 -14.245510 2.893671 -12.651605 -26.496326 4.515907 31.983122 -4.935557 2.348746 21.520456 -3.246476 -1.231429 0.000000 0.000000 0.000000 12.002885 -0.970254 -0.526395 2.637241 -0.385227 1.847770 0.000000 0.000000 0.000000 15.773183 -2.730823 -0.344097 1.793638 -19.108861 0.790359 -29.994526 -5.812742 -32.908575 -6.811762 -52.793162 1.423609 0.000000 0.000000 0.000000 16.148994 1.454326 0.745856 2.962776 0.784416 6.429889 -22.182359 1.984568 18.846731 -15.216654 65.538465 12.421543 0.000000 0.000000 0.000000 
-8.917859 79.059532 11.194230 0.000000 0.000000 0.000000 -8.853031 -2.755834 2.737856 -55.632348 5.236130 21.896881 43.512229 -14.691703 -2.744193 -9.753137 -12.607151 -19.939873 0.000000 0.000000 0.000000 15.056746 -26.739538 -0.677216 -11.233339 -13.879510 -20.044768 38.653308 7.201247 2.734213 -21.098717 -0.752028 18.774752 0.000000 0.000000 0.000000 1.570670 -14.172830 2.784845 -12.962693 -25.802723 3.566494 31.173421 -4.768009 2.243593 20.870234 -3.108665 -1.181511 0.000000 0.000000 0.000000 11.665555 -0.869427 -0.429577 2.494514 -0.318678 1.836370 0.000000 0.000000 0.000000 15.176446 -2.711281 -0.375790 1.685995 -18.848641 0.682670 -29.174289 -4.820416 -33.072835 -6.607536 -51.198128 1.262190 0.000000 0.000000 0.000000 15.496429 1.430199 0.723544 2.807502 1.017011 6.413842 -20.793172 1.443019 18.704620 -13.658413 64.680908 10.980515 0.000000 0.000000 0.000000 
-8.701940 79.194847 10.830774 0.000000 0.000000 0.000000 -9.109736 -2.575075 2.461634 -55.974780 5.348456 21.677784 44.064573 -14.719476 -2.501868 -9.271044 -12.832898 -19.699258 0.000000 0.000000 0.000000 14.923402 -26.783439 -0.813232 -11.358453 -13.845837 -20.174576 37.991800 6.888111 2.793998 -21.231158 -0.970362 18.641507 0.000000 0.000000 0.000000 1.583982 -14.207461 2.679857 -13.122145 -25.178301 2.697875 30.296650 -4.573359 2.102839 20.178054 -2.952416 -1.149992 0.000000 0.000000 0.000000 11.237076 -0.740915 -0.348047 2.317118 -0.230845 1.817613 0.000000 0.000000 0.000000 14.514524 -2.680268 -0.425655 1.564152 -18.558360 0.565438 -28.441092 -3.934489 -33.372407 -6.438897 -49.691487 1.014983 0.000000 0.000000 0.000000 14.765535 1.416541 0.692794 2.623549 1.319862 6.353329 -19.631586 0.771784 18.766134 -12.423457 63.698877 9.879534 0.000000 0.000000 0.000000 
-8.472734 79.307938 10.481126 0.000000 0.000000 0.000000 -9.325981 -2.512899 2.217212 -56.290089 5.427662 21.494293 44.658092 -14.738020 -2.276729 -8.750675 -13.045038 -19.482512 0.000000 0.000000 0.000000 14.781504 -26.900813 -0.932891 -11.514104 -13.831738 -20.307380 37.463048 6.599557 2.835727 -21.291045 -1.158995 18.514908 0.000000 0.000000 0.000000 1.585668 -14.356841 2.582239 -13.147999 -24.675689 1.913860 29.362065 -4.344116 1.926149 19.450278 -2.773376 -1.137383 0.000000 0.000000 0.000000 10.721078 -0.584212 -0.273274 2.106103 -0.124930 1.797600 0.000000 0.000000 0.000000 13.790619 -2.627695 -0.493771 1.425272 -18.219552 0.443352 -27.795159 -3.137454 -33.792163 -6.303879 -48.276791 0.695388 0.000000 0.000000 0.000000 13.960714 1.423256 0.653507 2.404164 1.716654 6.263793 -18.711862 0.007954 19.041956 -11.500678 62.607542 9.109678 0.000000 0.000000 0.000000 
-8.227558 79.396034 10.145035 0.000000 0.000000 0.000000 -9.506846 -2.572544 2.003133 -56.582254 5.472114 21.344828 45.280165 -14.746633 -2.071329 -8.203728 -13.239698 -19.290445 0.000000 0.000000 0.000000 14.628590 -27.080331 -1.039243 -11.702887 -13.833263 -20.443767 37.088187 6.351242 2.857983 -21.266340 -1.304380 18.402977 0.000000 0.000000 0.000000 1.578941 -14.622079 2.495561 -13.054846 -24.339417 1.221110 28.380382 -4.075833 1.714018 18.694615 -2.568888 -1.144058 0.000000 0.000000 0.000000 10.127134 -0.399147 -0.200403 1.865213 -0.003901 1.780355 0.000000 0.000000 0.000000 13.011190 -2.545307 -0.579744 1.269640 -17.821236 0.322368 -27.228754 -2.408730 -34.309915 -6.197341 -46.948456 0.320597 0.000000 0.000000 0.000000 13.089517 1.458822 0.605101 2.146534 2.225612 6.155921 -18.027127 -0.809656 19.531553 -10.859419 61.422990 8.645098 0.000000 0.000000 0.000000 
-7.966847 79.459747 9.818003 0.000000 0.000000 0.000000 -9.661056 -2.753327 1.816061 -56.858992 5.481313 21.225767 45.913501 -14.743983 -1.888727 -7.646066 -13.411604 -19.123693 0.000000 0.000000 0.000000 14.460740 -27.307612 -1.137643 -11.929176 -13.844821 -20.585835 36.881041 6.157348 2.859941 -21.149826 -1.394456 18.312719 0.000000 0.000000 0.000000 1.567349 -14.994917 2.422904 -12.851916 -24.197702 0.627523 27.362989 -3.766206 1.468068 17.919654 -2.337657 -1.170178 0.000000 0.000000 0.000000 9.471505 -0.186344 -0.129805 1.601278 0.129376 1.766887 0.000000 0.000000 0.000000 12.185246 -2.427481 -0.682430 1.100188 -17.363005 0.210221 -26.732988 -1.729205 -34.897048 -6.113402 -45.696001 -0.090207 0.000000 0.000000 0.000000 12.161859 1.529905 0.546816 1.851459 2.857961 6.036258 -17.549505 -1.644218 20.226116 -10.454312 60.159480 8.448313 0.000000 0.000000 0.000000 
-7.693883 79.502190 9.492175 0.000000 0.000000 0.000000 -9.798780 -3.052608 1.651614 -57.129246 5.455527 21.132293 46.537344 -14.728044 -1.732321 -7.096227 -13.554421 -18.982576 0.000000 0.000000 0.000000 14.272772 -27.569167 -1.235490 -12.198627 -13.860470 -20.737670 36.845978 6.029005 2.841529 -20.940322 -1.420017 18.249582 0.000000 0.000000 0.000000 1.553865 -15.456179 2.365982 -12.543458 -24.254830 0.138325 26.321133 -3.414111 1.191378 17.134180 -2.079315 -1.215475 0.000000 0.000000 0.000000 8.776208 0.052669 -0.067246 1.323823 0.272116 1.754961 0.000000 0.000000 0.000000 11.323115 -2.271600 -0.799833 0.921457 -16.856033 0.116120 -26.304177 -1.084703 -35.521389 -6.047957 -44.507931 -0.518415 0.000000 0.000000 0.000000 11.188811 1.641131 0.478032 1.522505 3.617329 5.908384 -17.233892 -2.464653 21.111392 -10.230741 58.825872 8.475195 0.000000 0.000000 0.000000 
-7.414055 79.527359 9.158381 0.000000 0.000000 0.000000 -9.929092 -3.467421 1.505643 -57.400254 5.395329 21.059505 47.130054 -14.696124 -1.605462 -6.572607 -13.661456 -18.866994 0.000000 0.000000 0.000000 14.059220 -27.855251 -1.341446 -12.516335 -13.875131 -20.905037 36.977811 5.973014 2.803366 -20.642355 -1.375649 18.217011 0.000000 0.000000 0.000000 1.540233 -15.976885 2.324270 -12.130818 -24.487415 -0.248222 25.264822 -3.019029 0.888617 16.346369 -1.794124 -1.279057 0.000000 0.000000 0.000000 8.066398 0.315687 -0.022530 1.043849 0.421729 1.739713 0.000000 0.000000 0.000000 10.434990 -2.077931 -0.929243 0.738184 -16.321483 0.049427 -25.947716 -0.467290 -36.151659 -6.000572 -43.373723 -0.948838 0.000000 0.000000 0.000000 10.181246 1.794975 0.398587 1.164844 4.500028 5.774218 -17.025030 -3.249037 22.169016 -10.130403 57.422521 8.678717 0.000000 0.000000 0.000000 
-7.133923 79.538208 8.808963 0.000000 0.000000 0.000000 -10.057878 -3.994765 1.375735 -57.674896 5.301265 21.003662 47.673389 -14.645138 -1.510924 -6.089403 -13.726787 -18.776315 0.000000 0.000000 0.000000 13.816508 -28.161345 -1.463737 -12.883612 -13.885760 -21.093981 37.264061 5.991007 2.746388 -20.264278 -1.260109 18.215934 0.000000 0.000000 0.000000 1.527022 -16.523008 2.294632 -11.615134 -24.847473 -0.542433 24.202029 -2.580994 0.565954 15.563083 -1.482886 -1.359262 0.000000 0.000000 0.000000 7.366970 0.600207 -0.006984 0.772214 0.575976 1.714869 0.000000 0.000000 0.000000 9.529660 -1.848931 -1.067527 0.553887 -15.785764 0.017744 -25.678337 0.126050 -36.761885 -5.975222 -42.283485 -1.372056 0.000000 0.000000 0.000000 9.148964 1.991818 0.308969 0.784277 5.496318 5.634864 -16.865585 -3.986533 23.375592 -10.095668 55.939475 9.010632 0.000000 0.000000 0.000000 
